<svg width="78" height="70" fill="none" xmlns="http://www.w3.org/2000/svg"><g clip-path="url(#clip0)" filter="url(#filter0_dd)"><path d="M36.65 32.735h2.332V43.23H36.65V32.735zM45.978 37.4h2.332v5.83h-2.332V37.4zM27.321 40.898h2.332v2.332h-2.332v-2.332zM20.325 39.731h2.332v3.498h-2.332v-3.498z" fill="#2196F3"/><path d="M7.498 61.886h55.97a3.498 3.498 0 003.499-3.498v-4.664a3.498 3.498 0 00-3.498-3.498h-1.166v-29.08l6.623-6.274a3.518 3.518 0 10-1.633-1.668l-4.99 4.73v-2.69a3.498 3.498 0 00-3.498-3.498H12.162a3.498 3.498 0 00-3.498 3.498v34.982H7.498A3.498 3.498 0 004 53.724v4.664a3.498 3.498 0 003.498 3.498zM70.465 10.58a1.166 1.166 0 110 2.332 1.166 1.166 0 010-2.332zm-59.469 4.664c0-.644.522-1.166 1.166-1.166h46.643c.644 0 1.166.522 1.166 1.166v4.897l-2.332 2.216v-4.78c0-.645-.523-1.167-1.167-1.167H14.495c-.644 0-1.167.522-1.167 1.166v29.152c0 .644.523 1.166 1.167 1.166h41.977c.645 0 1.167-.522 1.167-1.166V25.565l2.332-2.21v26.87H10.996v-34.98zm10.495 15.159a3.498 3.498 0 102.422 6.012l4.053 2.034c.471.235 1.042.125 1.392-.268l8.616-9.694 8.47 6.347c.455.34 1.089.304 1.501-.086l7.361-6.973v17.787H15.661v-26.82h39.645v5.82l-8.25 7.813-8.54-6.403a1.167 1.167 0 00-1.572.157l-8.734 9.828-3.265-1.633c.023-.14.038-.281.044-.423a3.498 3.498 0 00-3.498-3.498zm1.166 3.498a1.166 1.166 0 11-2.332 0 1.166 1.166 0 012.332 0zm6.996 18.657h11.66v1.166c0 .644-.521 1.166-1.165 1.166h-9.329a1.166 1.166 0 01-1.166-1.166v-1.166zm-23.32 1.166c0-.644.521-1.166 1.165-1.166h19.823v1.166a3.498 3.498 0 003.498 3.498h9.329a3.498 3.498 0 003.498-3.498v-1.166h19.823c.644 0 1.166.522 1.166 1.166v4.664c0 .644-.522 1.166-1.166 1.166H7.499a1.166 1.166 0 01-1.167-1.166v-4.664z" fill="#212121"/></g><defs><clipPath id="clip0"><path fill="#fff" transform="translate(4)" d="M0 0h70v70H0z"/></clipPath><filter id="filter0_dd" x="0" y="0" width="78" height="78" filterUnits="userSpaceOnUse" color-interpolation-filters="sRGB"><feFlood flood-opacity="0" result="BackgroundImageFix"/><feColorMatrix in="SourceAlpha" values="0 0 0 0 0 0 0 0 0 0 0 0 0 0 0 0 0 0 127 0"/><feOffset dy="4"/><feGaussianBlur stdDeviation="2"/><feColorMatrix values="0 0 0 0 0 0 0 0 0 0 0 0 0 0 0 0 0 0 0.25 0"/><feBlend in2="BackgroundImageFix" result="effect1_dropShadow"/><feColorMatrix in="SourceAlpha" values="0 0 0 0 0 0 0 0 0 0 0 0 0 0 0 0 0 0 127 0"/><feOffset dy="4"/><feGaussianBlur stdDeviation="2"/><feColorMatrix values="0 0 0 0 0 0 0 0 0 0 0 0 0 0 0 0 0 0 0.25 0"/><feBlend in2="effect1_dropShadow" result="effect2_dropShadow"/><feBlend in="SourceGraphic" in2="effect2_dropShadow" result="shape"/></filter></defs></svg>